<?xml version="1.0" encoding="UTF-8" standalone="no"?>
<!-- Created with Inkscape (http://www.inkscape.org/) -->

<svg
   width="171.31146mm"
   height="160.34772mm"
   viewBox="0 0 171.31146 160.34772"
   version="1.1"
   id="svg864"
   sodipodi:docname="background.svg"
   inkscape:version="1.1.1 (3bf5ae0d25, 2021-09-20)"
   xmlns:inkscape="http://www.inkscape.org/namespaces/inkscape"
   xmlns:sodipodi="http://sodipodi.sourceforge.net/DTD/sodipodi-0.dtd"
   xmlns="http://www.w3.org/2000/svg"
   xmlns:svg="http://www.w3.org/2000/svg">
  <sodipodi:namedview
     id="namedview866"
     pagecolor="#ffffff"
     bordercolor="#666666"
     borderopacity="1.0"
     inkscape:pageshadow="2"
     inkscape:pageopacity="0.0"
     inkscape:pagecheckerboard="0"
     inkscape:document-units="mm"
     showgrid="false"
     fit-margin-top="2"
     fit-margin-left="2"
     fit-margin-bottom="2"
     fit-margin-right="2"
     inkscape:zoom="0.70710678"
     inkscape:cx="117.37973"
     inkscape:cy="218.496"
     inkscape:window-width="1920"
     inkscape:window-height="1017"
     inkscape:window-x="1912"
     inkscape:window-y="-8"
     inkscape:window-maximized="1"
     inkscape:current-layer="layer1" />
  <defs
     id="defs861" />
  <g
     inkscape:label="Livello 1"
     inkscape:groupmode="layer"
     id="layer1"
     transform="translate(-114.07504,-83.903071)">
    <g
       id="g3216"
       transform="matrix(4.6456842,0,0,4.6456842,-667.14275,-187.08506)"
       style="fill:#e6e6e6;fill-opacity:1">
      <path
         id="polygon1026"
         style="opacity:1;fill:#e6e6e6;fill-opacity:1;stroke-width:1.40679"
         d="m 703.54883,267.69531 -7.71094,4.00977 h 16.03906 z m -27.08594,14.08594 -8.08203,4.20313 v 45.01757 l 36.57617,18.28711 36.57617,-18.28711 v -45.01757 l -8.72851,-4.20313 z"
         transform="scale(0.26458333)" />
      <g
         id="g2907"
         transform="matrix(0.42133096,0,0,0.42133096,109.15955,44.593886)"
         style="fill:#e6e6e6;fill-opacity:1">
        <path
           d="m 183.19577,34.10649 c -0.40716,0.615967 -0.94483,1.706961 -1.14319,2.322928 -0.49069,1.508599 -0.48547,2.740534 0.0209,3.94637 0.0209,0.0522 -0.1566,-0.03132 -0.47503,-0.234903 -1.50338,-0.944832 -2.58393,-1.299797 -3.49744,-1.143195 -0.67861,0.120062 -1.0649,0.375845 -1.31024,0.876971 -0.3393,0.699489 -0.0731,1.853123 0.59509,2.578712 0.51157,0.553327 1.00225,0.642068 1.42508,0.266224 l 0.21402,-0.193143 -0.10962,-0.255783 c -0.14094,-0.313204 -0.10962,-0.537667 0.10962,-0.78823 0.21924,-0.250563 0.55855,-0.365404 1.06489,-0.365404 0.65251,0 1.11188,0.214022 1.44074,0.668168 0.1305,0.182702 0.15138,0.250563 0.12528,0.401945 -0.0522,0.281883 -0.29754,0.694269 -0.84565,1.435518 -0.87697,1.190175 -0.89263,1.445958 -0.0783,1.367657 0.61597,-0.05742 1.26848,-0.407165 1.55036,-0.835211 0.0835,-0.130501 0.16704,-0.240123 0.1827,-0.240123 0.0157,-0.0052 0.12528,0.250564 0.25057,0.558547 l 0.21924,0.563767 -0.12528,0.647288 c -0.75169,3.883729 -1.95753,6.900926 -3.46091,8.639208 -0.7047,0.81433 -1.70174,1.477278 -2.52129,1.6652 -1.88966,0.443706 -4.14995,-0.892631 -6.36848,-3.753226 l -0.42282,-0.548107 0.0313,-0.454146 c 0.0157,-0.255783 0.0418,-0.537666 0.0574,-0.631628 l 0.0261,-0.172262 0.1827,0.135722 c 0.43327,0.328864 1.05445,0.459366 1.65476,0.344524 0.43849,-0.0783 0.57943,-0.161822 0.60031,-0.339304 0.0261,-0.193142 -0.14094,-0.365404 -0.77257,-0.80389 -1.4825,-1.023133 -1.67042,-1.258036 -1.43552,-1.816583 0.26101,-0.626407 0.97093,-1.064893 1.72784,-1.075333 0.57943,-0.0052 0.85609,0.240123 0.85609,0.76213 0,0.318424 0.005,0.328864 0.18271,0.412385 0.71515,0.339304 1.36765,-0.281884 1.53992,-1.461618 0.13572,-0.965712 -0.21925,-1.842683 -0.87176,-2.161107 -0.522,-0.250563 -1.41985,-0.125282 -2.15588,0.302764 -0.41761,0.245343 -1.57124,1.383317 -1.98363,1.957524 -0.1566,0.224463 -0.29754,0.407165 -0.3132,0.407165 -0.0157,0 -0.0261,-0.266223 -0.0261,-0.589867 -0.005,-1.445958 -0.69949,-2.850156 -2.12979,-4.311774 -0.62118,-0.636848 -1.35199,-1.226715 -1.39897,-1.137974 -0.0679,0.120061 -0.30277,1.096214 -0.38107,1.60256 -0.34452,2.108906 0.0418,3.993349 1.04923,5.115663 0.14095,0.156602 0.20881,0.266224 0.15139,0.245343 -0.22447,-0.08874 -1.1432,-0.297543 -1.613,-0.375844 -0.60031,-0.09396 -1.52426,-0.109622 -1.88967,-0.0261 -0.36018,0.0783 -0.94483,0.370625 -1.21105,0.600308 -0.78301,0.668168 -0.62641,1.905323 0.34974,2.813615 0.74647,0.689048 1.5086,0.79867 1.89489,0.281883 0.19314,-0.261003 0.21402,-0.375844 0.0835,-0.490686 -0.0626,-0.0522 -0.15661,-0.193142 -0.20881,-0.313204 -0.16182,-0.360184 -0.0104,-0.715149 0.45415,-1.044013 0.48025,-0.344524 1.31024,-0.428045 1.7696,-0.187922 0.44893,0.240123 0.46981,0.271443 0.46459,0.725589 -0.005,0.339304 -0.0522,0.548107 -0.27667,1.242375 -0.40716,1.247596 -0.43326,1.529479 -0.16704,1.61822 0.20358,0.06264 0.81955,-0.281883 1.22672,-0.683828 0.21402,-0.219243 0.50112,-0.756909 0.50112,-0.950052 0,-0.06264 0.0157,-0.114841 0.0418,-0.109621 0.0209,0 0.19315,0.187922 0.39151,0.412385 l 0.34974,0.412385 v 0.527227 c 0,1.211055 -0.19314,2.970216 -0.44892,4.108191 -0.24013,1.070113 -0.63685,2.082805 -1.05446,2.688332 -0.22968,0.334085 -0.73603,0.793451 -1.04401,0.950053 -0.49069,0.245343 -1.46162,0.454146 -2.25507,0.485465 -0.63684,0.02088 -0.75691,0.01045 -1.22149,-0.109621 -0.93961,-0.240123 -2.06715,-0.86653 -3.37216,-1.858343 -0.56899,-0.433265 -0.61075,-0.480246 -0.69427,-0.736029 -0.047,-0.151382 -0.0783,-0.281883 -0.0679,-0.292323 0.005,-0.01044 0.12006,0 0.24534,0.0261 0.56377,0.09918 1.25282,-0.135722 1.76438,-0.595087 0.30799,-0.276664 0.36541,-0.407166 0.2349,-0.548107 -0.12528,-0.140942 -0.3393,-0.187923 -1.32589,-0.307984 -1.613,-0.198363 -1.77482,-0.292324 -1.78526,-1.012693 -0.005,-0.433265 0.1566,-0.82477 0.48546,-1.195394 0.32365,-0.360185 0.69427,-0.568988 1.02835,-0.568988 0.29755,0 0.46981,0.120062 0.63163,0.448926 l 0.12528,0.250563 0.28189,-0.02088 c 0.16704,-0.01566 0.3393,-0.06786 0.4176,-0.125282 0.80389,-0.600307 0.21403,-2.688333 -0.91351,-3.24166 -0.65251,-0.323644 -1.31023,-0.125282 -1.99406,0.589867 -0.55855,0.589868 -0.87175,1.294576 -1.16408,2.630913 -0.0731,0.328864 -0.14616,0.715149 -0.16704,0.861311 l -0.0365,0.255783 -0.17226,-0.349744 c -0.57421,-1.153635 -1.5608,-1.983625 -3.0955,-2.589153 -0.60553,-0.240123 -1.51382,-0.485466 -2.25507,-0.605527 -0.57421,-0.08874 -0.73081,-0.09918 -0.73081,-0.03132 0,0.0783 1.53992,1.472059 2.74054,2.484751 2.04626,1.727842 3.06939,2.683114 4.32221,4.03511 0.88741,0.955272 1.67042,2.025386 2.76141,3.763667 1.21106,1.936645 1.71219,3.29908 1.85835,5.068683 l 0.0365,0.443705 7.38639,0.03654 c 4.06121,0.02088 13.79141,0.04176 21.62151,0.0522 l 14.23511,0.01566 0.0313,-0.287104 c 0.0522,-0.443705 0.30277,-1.430297 0.52201,-2.009724 0.25578,-0.69427 1.01269,-2.223749 1.54514,-3.13204 0.50113,-0.86131 1.5608,-2.45865 2.21331,-3.340841 0.80911,-1.101434 2.22375,-2.495191 4.38485,-4.322214 1.92099,-1.62866 3.21556,-2.813615 3.1477,-2.881475 -0.0418,-0.04698 -1.10143,0.120061 -1.70174,0.266223 -1.58168,0.386285 -3.01198,1.169294 -3.76889,2.067146 -0.17226,0.203582 -0.41238,0.568987 -0.54288,0.81433 l -0.22969,0.443705 -0.0626,-0.386285 c -0.25056,-1.571239 -0.68905,-2.703993 -1.29457,-3.346061 -0.62119,-0.657728 -1.34156,-0.882191 -1.96797,-0.615968 -0.51678,0.219243 -1.08055,0.997033 -1.25281,1.727842 -0.20359,0.871751 0.0157,1.503378 0.57942,1.65998 0.30799,0.08352 0.46981,0.0261 0.53767,-0.198362 0.17226,-0.584648 0.88741,-0.631628 1.49294,-0.104401 0.2349,0.208802 0.50635,0.610747 0.60031,0.897851 0.0887,0.281883 0.0731,0.85609 -0.0313,1.017912 -0.16705,0.250563 -0.55855,0.365405 -1.78527,0.506347 -0.84043,0.09396 -1.12231,0.161822 -1.24237,0.292323 -0.0835,0.09396 -0.0835,0.114842 -0.005,0.276664 0.0992,0.208802 0.62641,0.605527 1.00226,0.751689 0.35496,0.140942 0.73603,0.182702 1.01791,0.120061 0.12528,-0.0261 0.24012,-0.04698 0.24534,-0.03654 0.005,0.0052 -0.047,0.198362 -0.11484,0.428045 l -0.1305,0.412385 -0.51679,0.433266 c -1.95752,1.64954 -3.20512,2.255068 -4.61975,2.255068 -1.34678,0 -2.58394,-0.579428 -3.31475,-1.550359 -1.00747,-1.336337 -1.49815,-3.403483 -1.65476,-6.932246 l -0.0313,-0.73081 0.38106,-0.433265 0.37585,-0.433265 0.0887,0.287103 c 0.11484,0.365405 0.261,0.595088 0.54288,0.856091 0.29233,0.266223 0.61075,0.469806 0.90308,0.568987 0.21402,0.07308 0.2349,0.07308 0.3393,-0.01566 0.15138,-0.140942 0.10962,-0.433266 -0.21402,-1.445958 -0.43327,-1.367657 -0.44893,-1.644321 -0.12006,-1.915764 0.68904,-0.563767 2.07236,-0.297544 2.46387,0.475026 0.17226,0.334084 0.1305,0.548107 -0.16183,0.861311 l -0.15138,0.156602 0.12006,0.234902 c 0.29755,0.563767 0.87176,0.626408 1.5869,0.172263 0.70471,-0.448926 1.26848,-1.336337 1.26848,-1.999285 0,-0.76213 -0.65773,-1.440738 -1.64954,-1.701741 -0.64729,-0.172262 -1.83746,-0.08352 -3.03808,0.224462 l -0.57943,0.151382 0.29233,-0.370624 c 0.52723,-0.673389 0.85609,-1.508599 1.01269,-2.583932 0.0783,-0.548107 0.0365,-1.884444 -0.0835,-2.536952 -0.094,-0.522006 -0.32886,-1.440738 -0.38106,-1.498158 -0.0574,-0.05742 -1.02314,0.767349 -1.51904,1.294576 -0.87176,0.918731 -1.4564,1.853123 -1.77483,2.824055 -0.17226,0.532446 -0.2871,1.357217 -0.24012,1.722621 0.0365,0.292324 0.0679,0.318424 -0.49591,-0.407165 -1.12753,-1.445958 -2.19242,-2.150667 -3.26254,-2.155887 -0.53766,-0.0052 -0.92395,0.167042 -1.20061,0.532447 -0.52723,0.683828 -0.51679,2.088026 0.0157,2.855375 0.30276,0.428046 0.75169,0.563767 1.15885,0.344525 0.17749,-0.09396 0.18271,-0.104402 0.16705,-0.375845 -0.0261,-0.527227 0.27666,-0.78823 0.90307,-0.78301 0.6003,0.0052 1.19539,0.318424 1.52426,0.80911 0.46458,0.683829 0.32886,0.965712 -0.87175,1.795703 -0.74125,0.511566 -1.091,0.788229 -1.15364,0.903071 -0.17748,0.334084 0.20358,0.542887 0.99703,0.542887 0.56377,0 0.86131,-0.08874 1.2215,-0.365405 l 0.22446,-0.172262 0.0365,0.568987 0.0365,0.568987 -0.32364,0.428045 c -1.08577,1.430298 -2.14023,2.568272 -2.98066,3.1999 -1.68086,1.273696 -2.76663,1.346777 -4.36919,0.307984 -1.05968,-0.694269 -2.06193,-1.947084 -2.90758,-3.622725 -0.82477,-1.644321 -1.61822,-4.071651 -2.0567,-6.300618 l -0.12007,-0.584648 0.13573,-0.328864 c 0.0731,-0.182702 0.17226,-0.417605 0.21924,-0.532446 l 0.0835,-0.198363 0.14616,0.229683 c 0.28188,0.443706 0.82477,0.76213 1.48772,0.882191 0.39672,0.06786 0.57943,0.03654 0.65773,-0.109621 0.0835,-0.161822 -0.0679,-0.459366 -0.63685,-1.242376 -0.62641,-0.85609 -0.74647,-1.059673 -0.82999,-1.367657 -0.0574,-0.224463 -0.0522,-0.250563 0.0783,-0.459366 0.44893,-0.715148 1.64432,-0.944831 2.37513,-0.459365 0.17748,0.120061 0.261,0.219243 0.31842,0.381065 0.0679,0.208802 0.0679,0.240123 -0.0418,0.495906 l -0.11484,0.271443 0.14616,0.151382 c 0.40195,0.433265 0.93962,0.375845 1.44596,-0.156602 0.77257,-0.80389 1.01269,-2.098466 0.52201,-2.839715 -0.15138,-0.234903 -0.54289,-0.495906 -0.89263,-0.600308 -0.40195,-0.114841 -1.16408,-0.09918 -1.6391,0.03132 -0.50113,0.140942 -1.49816,0.626408 -2.16633,1.064893 -0.2871,0.182702 -0.52723,0.334084 -0.53245,0.323644 -0.005,-0.0052 0.0574,-0.208803 0.14095,-0.448926 0.4698,-1.378097 0.24012,-3.100718 -0.65773,-4.932961 -0.29755,-0.610747 -0.83521,-1.487718 -0.90829,-1.487718 -0.0261,0 -0.19315,0.219242 -0.36541,0.480246 z"
           id="path2385"
           style="fill:#e6e6e6;fill-opacity:1;stroke:none;stroke-width:0.00522007" />
        <path
           d="m 161.94489,68.433636 0.005,3.14248 h 21.61107 21.60584 l 0.006,-3.184241 h -21.6116 c -11.88609,0 -21.61107,0.01566 -21.61629,0.04176 z"
           id="path2387"
           style="fill:#e6e6e6;fill-opacity:1;stroke:none;stroke-width:0.00522007"
           sodipodi:nodetypes="cccccscc" />
      </g>
    </g>
  </g>
</svg>
