<?xml version="1.0" encoding="UTF-8" standalone="no"?>
<!-- Uploaded to: SVG Repo, www.svgrepo.com, Generator: SVG Repo Mixer Tools -->

<svg
   height="460.92047"
   width="723.45917"
   version="1.1"
   id="Layer_1"
   viewBox="0 0 253.21071 161.32216"
   xml:space="preserve"
   sodipodi:docname="eraser.svg"
   inkscape:version="1.1.1 (3bf5ae0d25, 2021-09-20)"
   xmlns:inkscape="http://www.inkscape.org/namespaces/inkscape"
   xmlns:sodipodi="http://sodipodi.sourceforge.net/DTD/sodipodi-0.dtd"
   xmlns="http://www.w3.org/2000/svg"
   xmlns:svg="http://www.w3.org/2000/svg"><defs
   id="defs1426" /><sodipodi:namedview
   id="namedview1424"
   pagecolor="#ffffff"
   bordercolor="#666666"
   borderopacity="1.0"
   inkscape:pageshadow="2"
   inkscape:pageopacity="0.0"
   inkscape:pagecheckerboard="0"
   showgrid="false"
   fit-margin-top="0"
   fit-margin-left="0"
   fit-margin-right="0"
   fit-margin-bottom="0"
   inkscape:zoom="0.53625"
   inkscape:cx="248.01865"
   inkscape:cy="295.5711"
   inkscape:window-width="1920"
   inkscape:window-height="1017"
   inkscape:window-x="1912"
   inkscape:window-y="-8"
   inkscape:window-maximized="1"
   inkscape:current-layer="Layer_1" />
<g
   id="g1421"
   transform="translate(-13.392734,-59.339829)">
	
	
	
	<g
   id="g1493"
   transform="rotate(45,139.9995,139.9995)"><g
     id="g1486"><path
       style="fill:#26a6d1"
       d="m 183.679,4.634 91.683,91.683 c 6.178,6.178 6.178,16.207 0,22.385 L 118.695,275.359 c -6.178,6.187 -16.207,6.187 -22.385,0 L 4.637,183.676 c -6.178,-6.178 -6.178,-16.198 0,-22.376 L 161.295,4.634 c 6.187,-6.179 16.206,-6.179 22.384,0 z"
       id="path1413" /></g><path
     style="fill:#e2574c"
     d="M 84.34,81.597 4.637,161.3 c -6.178,6.178 -6.178,16.198 0,22.376 l 91.683,91.683 c 6.178,6.187 16.207,6.187 22.385,0 l 79.703,-79.694 z"
     id="path1415" /><path
     style="fill:#cb4e44"
     d="M 40.585,125.352 4.637,161.3 c -6.178,6.178 -6.178,16.198 0,22.376 l 91.683,91.683 c 6.178,6.187 16.207,6.187 22.385,0 l 35.949,-35.94 z"
     id="path1417" /><path
     style="fill:#eae5e4"
     d="M 20.416,145.548 134.457,259.589 123.902,270.144 9.861,156.103 Z"
     id="path1419" /></g>
</g>
</svg>
