<?xml version="1.0" encoding="UTF-8" standalone="no"?>
<!-- Created with Inkscape (http://www.inkscape.org/) -->

<svg
   width="171.31146mm"
   height="160.34772mm"
   viewBox="0 0 171.31146 160.34772"
   version="1.1"
   id="svg864"
   sodipodi:docname="foreground.svg"
   inkscape:version="1.1.1 (3bf5ae0d25, 2021-09-20)"
   xmlns:inkscape="http://www.inkscape.org/namespaces/inkscape"
   xmlns:sodipodi="http://sodipodi.sourceforge.net/DTD/sodipodi-0.dtd"
   xmlns:xlink="http://www.w3.org/1999/xlink"
   xmlns="http://www.w3.org/2000/svg"
   xmlns:svg="http://www.w3.org/2000/svg">
  <sodipodi:namedview
     id="namedview866"
     pagecolor="#ffffff"
     bordercolor="#666666"
     borderopacity="1.0"
     inkscape:pageshadow="2"
     inkscape:pageopacity="0.0"
     inkscape:pagecheckerboard="0"
     inkscape:document-units="mm"
     showgrid="false"
     fit-margin-top="2"
     fit-margin-left="2"
     fit-margin-bottom="2"
     fit-margin-right="2"
     inkscape:zoom="0.70710678"
     inkscape:cx="117.37973"
     inkscape:cy="218.496"
     inkscape:window-width="1920"
     inkscape:window-height="1017"
     inkscape:window-x="1912"
     inkscape:window-y="-8"
     inkscape:window-maximized="1"
     inkscape:current-layer="layer1" />
  <defs
     id="defs861">
    <linearGradient
       inkscape:collect="always"
       xlink:href="#linearGradient20947"
       id="linearGradient20949"
       x1="433.2453"
       y1="339.46152"
       x2="433.2453"
       y2="765.13971"
       gradientUnits="userSpaceOnUse"
       gradientTransform="matrix(0.26458333,0,0,0.26458333,91.799499,41.086867)" />
    <linearGradient
       inkscape:collect="always"
       id="linearGradient20947">
      <stop
         style="stop-color:#666666;stop-opacity:1"
         offset="0"
         id="stop20943" />
      <stop
         style="stop-color:#000000;stop-opacity:1"
         offset="1"
         id="stop20945" />
    </linearGradient>
  </defs>
  <g
     inkscape:label="Livello 1"
     inkscape:groupmode="layer"
     id="layer1"
     transform="translate(-114.07504,-83.903071)">
    <path
       id="path19291"
       style="font-size:10.5833px;line-height:1.25;font-family:Chomsky;-inkscape-font-specification:Chomsky;text-align:center;text-anchor:middle;fill:#ffffff;stroke:#e6e6e6;stroke-width:2;stroke-linecap:round;stroke-linejoin:miter;stroke-miterlimit:4;stroke-dasharray:none"
       d="m 182.11395,130.82515 c -1.16802,0.99929 -2.33593,1.9987 -3.5039,2.99804 -7.21654,-3.33661 -16.57866,-1.77513 -21.96721,4.18899 -4.84325,5.29334 -5.56819,14.06911 -1.20129,19.86512 0.5031,0.68327 1.05426,1.33439 1.67435,1.91465 -1.03478,1.65043 -1.83028,3.50099 -3.14613,4.94838 -3.32596,2.47651 -6.00947,5.68184 -8.54332,8.93443 -1.92332,-0.48287 -3.64771,0.75717 -5.34399,1.43949 -0.53348,0.31403 -1.01001,0.48785 -1.24647,-0.19802 -0.75187,-1.13691 -1.70039,-2.38061 -3.17321,-2.50709 -1.21943,-0.21883 -2.36069,0.34128 -3.39962,0.89654 -8.73812,3.97596 -14.7134,13.14457 -15.1188,22.69976 -0.50739,7.42079 1.77602,15.24422 7.07404,20.60826 4.01098,4.0797 10.09823,6.36999 15.77123,5.0328 4.40447,-0.92876 8.31931,-3.47068 11.48174,-6.61041 1.86459,0.30989 3.72917,0.61979 5.59375,0.92969 v 13.97851 c 1.4473,-0.66471 3.04871,-0.60652 4.60157,-0.59765 1.34725,0.0129 2.65985,-0.40997 3.74541,-1.20886 2.75574,-1.64006 5.47516,-3.33732 8.23115,-4.97864 v -4.32032 c 1.67306,-1.41283 3.41677,-2.66742 5.26172,-3.81445 0.92442,1.23767 1.84933,2.47498 2.77343,3.71289 0.85118,-0.538 1.70181,-1.07686 2.55274,-1.61523 1.68621,1.47003 3.37229,2.94023 5.05859,4.41015 2.9044,-1.52389 5.80858,-3.04821 8.71289,-4.57226 0.61187,0.78394 1.2255,1.56651 1.83594,2.35156 0.73035,-0.53402 1.46095,-1.0677 2.19141,-1.60156 1.5814,1.4238 3.16264,2.84779 4.74414,4.27148 2.62231,-1.83215 5.24481,-3.66404 7.86719,-5.49609 2.58964,2.04492 5.17189,4.09717 7.75195,6.15429 1.78883,-1.61563 3.58097,-3.22759 5.37109,-4.84179 1.84189,1.60927 3.683,3.21943 5.52539,4.82812 2.04768,-1.66648 4.09503,-3.33336 6.14258,-5 1.81374,1.58796 3.62798,3.17536 5.44141,4.76367 2.78285,-1.814 5.56505,-3.62898 8.34766,-5.44335 2.27369,2.42841 5.54653,3.77458 8.83789,3.99414 1.5208,-0.64242 2.83184,-1.6612 4.14257,-2.64454 1.23508,1.27969 2.53204,2.49565 3.77539,3.76758 4.09024,-2.81027 8.18019,-5.62097 12.27149,-8.42968 -0.80692,-3.24635 -1.61551,-6.49229 -2.42383,-9.73829 -0.98716,0.67093 -1.97659,1.3385 -2.96484,2.00782 0.007,-2.24479 0.006,-4.48958 0.004,-6.73438 1.41478,-1.14705 2.82897,-2.29484 4.24414,-3.44141 -2.00425,-2.60339 -4.00441,-5.20995 -6.00976,-7.8125 -1.01182,0.8189 -2.02343,1.63804 -3.03516,2.45704 -2.30098,-1.49513 -4.60036,-2.99274 -6.90234,-4.48633 -3.62854,2.23933 -7.88502,3.54556 -10.99694,6.5594 -0.43956,-0.31914 -0.88739,-1.01557 -1.33012,-1.47933 -0.83427,-0.98117 -1.66923,-1.96177 -2.50302,-2.94335 -0.70574,0.56135 -1.4128,1.12104 -2.11914,1.68164 -1.63675,-1.41012 -3.27324,-2.82054 -4.91016,-4.23047 -2.2915,1.42629 -4.58195,2.85429 -6.87304,4.28125 -1.67383,-1.43164 -3.34765,-2.8633 -5.02149,-4.29492 -2.04691,1.29328 -4.09515,2.58448 -6.14258,3.87695 -1.2527,-1.41267 -2.50454,-2.82611 -3.75781,-4.23828 -3.20085,2.20069 -6.40099,4.40242 -9.60156,6.60351 -0.4655,-0.55924 -0.93099,-1.11849 -1.39649,-1.67773 1.96219,-1.74485 3.92482,-3.48921 5.88672,-5.23438 -1.35331,-1.56187 -2.8571,-3.26453 -4.11523,-4.73828 0.46678,0.57111 0.89706,-0.39534 1.34588,-0.58445 2.73302,-2.22901 5.46603,-4.45802 8.19904,-6.68703 2.05253,3.71266 6.22648,6.10645 10.44141,6.18164 1.52072,-0.20386 2.5112,-1.51603 3.77343,-2.24414 0.4088,-0.71693 0.77633,0.16538 1.15934,0.4373 1.00677,1.00009 2.0137,2 3.02035,3.0002 4.09009,-2.80824 8.17885,-5.61842 12.26953,-8.42578 -0.80605,-3.24689 -1.61216,-6.49377 -2.41992,-9.74024 -0.98871,0.67186 -1.97919,1.34112 -2.96875,2.01172 0.009,-2.24609 0.008,-4.49218 0.004,-6.73828 1.40951,-1.14712 2.81895,-2.29434 4.22851,-3.4414 -1.99722,-2.60886 -3.99535,-5.21703 -5.99218,-7.82618 -1.01345,0.8219 -2.02737,1.6432 -3.04102,2.46485 -2.29946,-1.49353 -4.59909,-2.98678 -6.89844,-4.48047 -3.60101,2.21941 -7.80821,3.52628 -10.9194,6.48614 -0.38715,0.42626 -0.72196,0.89867 -1.00052,1.40253 -1.94604,-2.89654 -3.82112,-5.83874 -5.75586,-8.74219 -5.1409,2.68496 -10.28261,5.36837 -15.42383,8.05274 V 131.2021 c -2.1249,0.8229 -4.44757,0.0361 -6.59375,0.70899 -1.42312,0.523 -2.51431,1.65031 -3.78582,2.44566 l -3.72004,2.64027 c 0.0463,-1.5233 -0.97525,-2.8857 -2.26959,-3.59201 -1.15993,-0.95657 -2.32179,-1.91078 -3.48041,-2.86892 -0.11263,0.0964 -0.22526,0.1927 -0.33789,0.28906 z m -7.93555,44.47852 c 1.54105,1.36901 3.19276,2.67114 5.01954,3.61914 2.00358,0.44298 3.75715,-0.95289 5.14974,-2.2019 0.66038,-0.5393 1.31983,-1.07967 1.98697,-1.6106 0.4056,0.58333 0.81147,1.16648 1.2168,1.75 0.89131,-0.56571 1.78255,-1.13152 2.67383,-1.69727 1.80859,1.5599 3.61719,3.11979 5.42578,4.67969 2.00807,-1.40202 4.00716,-2.86593 6.03516,-4.20898 1.04584,0.32532 2.20597,0.0709 3.11133,-0.51368 -2.84245,2.52735 -5.6849,5.05469 -8.52735,7.58203 0.26043,-0.52527 -0.75723,-0.40083 -1.22929,-0.50781 h -5.72188 c -2.43782,2.45933 -4.87212,4.92215 -7.30859,7.38281 -1.01387,-0.73802 -2.45933,-0.93593 -3.57813,-0.31835 -1.58077,-1.45068 -3.20862,-2.82493 -4.79492,-4.25977 -1.7428,1.30756 -3.48709,2.61313 -5.23047,3.91992 -1.1828,-1.19608 -2.55646,-2.37751 -4.22656,-2.76562 -1.92045,-0.0267 -3.47877,1.30878 -4.95508,2.30664 -1.00415,-3.24392 -2.72621,-6.26524 -5.02344,-8.76758 1.97071,-1.59913 4.02623,-3.18712 6.38867,-4.15235 2.05179,-0.41948 3.92369,0.87996 5.51971,1.9972 1.46747,1.31751 3.91486,1.21801 5.25793,-0.22995 0.87262,-0.72445 1.70197,-1.49375 2.54854,-2.24771 0.0872,0.0814 0.17448,0.16276 0.26171,0.24414 z m 25.33985,12.68554 c -1.08268,-0.001 -2.16536,-0.003 -3.24805,-0.004 v -3.72266 c 1.08269,1.24219 2.16537,2.48438 3.24805,3.72656 z m 52.87109,12.23243 c 0.20115,0.86998 0.71896,1.72182 1.09961,2.44531 -0.39552,0.42277 -0.77187,0.86486 -1.10351,1.33984 0.005,-1.25212 -0.004,-2.5795 0.004,-3.78515 z m -38.88476,1.11328 c 0.4942,0.0186 0.85248,0.0412 0.67831,0.65273 -0.005,1.34948 -0.005,2.69896 -0.003,4.04844 -0.3457,-0.28757 -0.83874,-0.48071 -0.68653,-1.00958 -0.002,-1.22371 -0.0184,-2.49772 0.0108,-3.69159 z"
       sodipodi:nodetypes="ccccccccccccccccccccccccccccccccccccccccccccccccccccccccccccccccccccccccccccccccccccccccccccccccccccccccccccccccccccccccsccccs" />
    <path
       id="path13968"
       style="font-size:10.5833px;line-height:1.25;font-family:Chomsky;-inkscape-font-specification:Chomsky;text-align:center;text-anchor:middle;fill:url(#linearGradient20949);fill-opacity:1;stroke:none;stroke-width:0.264583"
       d="m 197.1171,135.86248 -8.15971,5.79086 v 0.70486 c 2.20257,0.70493 2.40296,1.25881 2.40296,3.67575 v 21.90357 l -3.3538,2.16524 0.70073,1.00718 1.90221,-1.20872 5.30613,4.58215 6.08025,-4.29069 0.82786,1.01803 2.20245,-1.81281 7.45898,5.53868 10.31203,-8.40879 -0.75086,-1.20871 -5.50664,4.33048 -6.00687,-4.12895 v -2.16524 l 10.81226,-6.74739 v -0.25167 l -5.05551,-7.70392 -11.96412,6.24355 v 13.29325 l -2.27635,1.8128 -0.62684,-0.85576 -1.45211,1.2082 -1.9022,-1.91358 v -32.57837 z m -14.61719,0.20153 -3.3538,2.87011 c -2.55299,-1.71201 -5.60638,-2.61844 -8.65994,-2.61844 -7.1083,0 -13.71596,4.88454 -13.71596,12.53825 0,4.63245 2.55277,8.10675 5.95674,9.7684 l -5.15627,8.76122 c -2.82474,1.48833 -8.71598,8.11484 -10.70633,11.68869 -0.77385,-0.47551 -1.57164,-0.89552 -2.38383,-1.25418 l -14.41669,6.24354 c 1.40163,-2.61836 3.35419,-4.78338 5.55677,-6.34431 l -0.70125,-0.95654 c -7.55882,3.07153 -13.61571,10.77533 -13.61571,21.14807 0,11.37981 7.00837,19.88922 15.41818,19.88922 8.76023,0 19.27221,-11.02691 19.27221,-22.55779 0,-6.97632 -3.55783,-12.34654 -8.20725,-15.56701 2.71379,-2.69068 9.84808,-8.51318 12.93771,-8.51318 2.85333,0 5.6569,1.10781 7.85947,2.97088 l 5.55625,-4.88446 c 1.75204,2.06444 3.75431,3.87715 6.05699,5.38779 l 6.65799,-5.38779 -1.45159,-1.66139 -1.70222,1.3596 c -2.00234,-1.51058 -2.15232,-3.7763 -2.15232,-7.14995 V 142.5091 c 0,-1.91342 0.30038,-3.37338 1.15135,-4.53151 l 0.90072,-1.00717 z m -13.61571,5.18625 c 1.30151,0 2.55289,0.25189 3.75429,0.65474 l -9.41079,15.91169 c -2.15252,-1.66165 -3.70469,-4.22997 -3.70469,-7.5029 0,-5.28709 4.10505,-9.06353 9.36119,-9.06353 z m 5.05602,1.25884 c 0.40044,0.20154 0.75089,0.45326 1.15135,0.70487 v 12.89068 h -9.2108 z m 61.2712,6.39496 -5.50664,2.87011 c -1.50176,0.80564 -3.1533,2.06433 -3.1533,4.27984 0,2.31622 1.80197,3.77661 4.10466,4.78368 -3.75438,1.96373 -5.80688,4.53166 -5.80688,7.25073 0,3.72615 3.55399,6.19364 6.75772,6.59649 l 5.25653,-3.82715 3.85455,3.82715 6.95771,-4.78369 -0.25011,-1.00717 -2.15233,1.46038 -2.40295,-2.41691 v -12.68915 l 2.60294,-2.1146 -0.85111,-1.10794 -2.05207,1.66191 z m -23.72775,3.57497 4.10465,5.94176 -5.0555,3.22254 v -8.61032 z m 19.27272,0.20154 5.90661,3.67574 v 4.73305 c -3.35391,-0.75529 -8.65993,-2.11456 -8.65993,-5.33714 0,-1.35957 1.25158,-2.26601 2.75332,-3.07165 z m -67.62895,8.05636 -0.25011,0.55397 h 12.21424 v 4.22971 l -3.00395,2.51768 c -2.35274,-1.51058 -5.10574,-2.31614 -7.85895,-2.31614 -1.60187,0 -3.0534,0.25172 -4.45503,0.70487 z m 68.42993,0.45372 c 1.65193,0.60427 3.50377,1.05723 5.10563,1.40973 v 7.60315 c -0.35042,0.10048 -0.70068,0.15142 -1.05109,0.15142 -3.10362,0 -4.70566,-3.97809 -4.70566,-6.84817 0,-0.95672 0.30073,-1.81257 0.65112,-2.31613 z m -25.35504,18.33944 -4.75526,4.22972 4.25504,4.88394 4.75526,-4.22972 z m -67.37831,2.41588 c 0.75088,0.35227 1.50163,0.70509 2.20245,1.10794 v 29.20442 h -0.55036 c -5.15565,0 -9.11018,-3.57427 -11.21275,-8.55865 l 9.4108,-3.97805 0.0496,-17.7245 z m 3.60443,1.96474 c 3.2538,2.16514 5.5064,4.93482 6.85798,8.20776 l -6.85798,3.47421 z m -10.2123,0.80563 v 16.26413 l -3.45353,1.46037 c -0.851,-2.36658 -1.30173,-5.03572 -1.30173,-7.70444 0,-3.22258 0.65047,-6.19321 1.7017,-8.76122 z m 58.86876,1.71204 -8.15919,8.25789 v 0.70487 c 1.05123,0 2.40244,0.45324 2.40244,2.41691 v 12.08505 l -3.3538,2.16472 0.75085,1.00718 1.90221,-1.2082 5.25601,4.58215 6.90811,-3.62562 -0.70073,-0.95653 -1.70171,0.90641 -2.35283,-2.36678 v -15.40785 h 3.60392 l 2.35283,-2.76985 h -5.95675 v -5.79035 z m -17.67076,4.0287 -6.3071,4.73304 v -0.9064 c -0.75088,-1.561 -1.95217,-2.87017 -3.3538,-3.77652 l -6.057,4.07831 0.50023,0.80563 c 0.35043,-0.20154 0.75088,-0.35243 1.15135,-0.35243 1.55181,0 1.95234,1.35959 1.95234,2.16524 v 12.58838 l -2.55282,2.16524 c 0.85099,0.15129 1.70182,0.25166 2.55282,0.45321 v 12.68914 h 0.95136 l 7.15822,-4.33048 v -0.70487 c -1.65193,-0.25178 -2.3027,-1.56106 -2.3027,-3.52485 v -2.31614 c 1.2014,0.55381 2.35269,1.10782 3.40392,1.71204 2.50292,-2.16515 5.30607,-4.12921 8.30957,-5.79086 v -14.04824 l 1.85209,-1.5105 -0.8506,-1.10794 -1.55184,1.25884 z m 32.03732,0.10025 -6.75772,4.58215 0.75086,0.95653 1.90221,-1.2082 1.70222,2.16525 v 13.29324 l -3.15382,2.16473 0.75086,0.95704 1.6521,-1.20871 4.80539,4.33049 7.20835,-5.03535 -1.20148,-0.95653 -2.15232,1.40973 -1.70223,-1.6614 v -15.20682 z m 15.36806,0.15089 -6.95823,4.78369 0.70073,1.00718 1.90221,-1.20872 1.95233,2.16525 v 13.34337 l -1.95233,1.71204 5.75675,4.58214 4.80591,-4.32996 -2.15284,-1.96422 v -14.24978 l 2.20297,-1.30896 3.45405,3.17189 v 12.38685 l -2.10271,1.96422 4.95577,4.32996 5.50664,-4.48138 -2.60294,-2.31613 v -13.44414 l 2.65306,-1.61127 3.45406,3.17189 v 12.38685 l -2.10272,1.96422 4.95577,4.32996 7.40885,-4.83381 v -1.86293 l -2.15284,1.61127 -2.35231,-2.36678 v -12.63851 l 2.50269,-2.06447 -0.90124,-1.0573 -1.65157,1.30896 -5.20641,-4.48138 -6.85798,4.28036 -5.00589,-4.28036 -6.55722,4.12895 z m 44.15131,0.10077 -5.50613,2.87011 c -1.50175,0.80564 -3.15381,2.06433 -3.15381,4.27984 0,2.31628 1.80197,3.77662 4.10466,4.78369 -3.75439,1.96379 -5.80636,4.5317 -5.80636,7.25072 0,3.72615 3.55398,6.19365 6.75773,6.5965 l 5.256,-3.82664 3.85455,3.82664 6.95823,-4.78369 -0.25063,-1.00717 -2.15232,1.46037 -2.40296,-2.4169 v -12.68915 l 2.60346,-2.1146 -0.85111,-1.10795 -2.05259,1.66192 z m -115.13406,2.66857 c 0.35044,1.00701 0.60075,2.11528 0.80099,3.22306 l -8.20932,4.17908 v -3.67575 z m 110.67903,1.10795 5.90714,3.67574 v 4.73304 c -3.35391,-0.75529 -8.66046,-2.11456 -8.66046,-5.33714 0,-1.35957 1.25156,-2.266 2.75332,-3.07164 z m -91.20631,0.60409 3.30419,2.71922 v 14.95464 c -1.80211,-0.80564 -3.60442,-1.61098 -5.50664,-2.36626 v -13.64568 z m -18.52135,3.07165 c 0.10012,0.70494 0.10025,1.40995 0.10025,2.16524 0,6.44522 -3.90463,10.67461 -8.45995,11.63133 v -9.56685 z m 110.52865,4.83433 c 1.65193,0.60427 3.50428,1.05723 5.10615,1.40973 v 7.60316 c -0.35043,0.10048 -0.70122,0.15141 -1.05162,0.15141 -3.10363,0 -4.70514,-3.97808 -4.70514,-6.84816 0,-0.95672 0.30022,-1.81258 0.65061,-2.31614 z" />
  </g>
</svg>
