<?xml version="1.0" encoding="UTF-8" standalone="no"?>
<!-- Created with Inkscape (http://www.inkscape.org/) -->

<svg
   width="171.31146mm"
   height="160.34772mm"
   viewBox="0 0 171.31146 160.34772"
   version="1.1"
   id="svg864"
   sodipodi:docname="logo.svg"
   inkscape:version="1.1.1 (3bf5ae0d25, 2021-09-20)"
   xmlns:inkscape="http://www.inkscape.org/namespaces/inkscape"
   xmlns:sodipodi="http://sodipodi.sourceforge.net/DTD/sodipodi-0.dtd"
   xmlns:xlink="http://www.w3.org/1999/xlink"
   xmlns="http://www.w3.org/2000/svg"
   xmlns:svg="http://www.w3.org/2000/svg">
  <sodipodi:namedview
     id="namedview866"
     pagecolor="#ffffff"
     bordercolor="#666666"
     borderopacity="1.0"
     inkscape:pageshadow="2"
     inkscape:pageopacity="0.0"
     inkscape:pagecheckerboard="0"
     inkscape:document-units="mm"
     showgrid="false"
     fit-margin-top="2"
     fit-margin-left="2"
     fit-margin-bottom="2"
     fit-margin-right="2"
     inkscape:zoom="0.70710678"
     inkscape:cx="117.37973"
     inkscape:cy="218.496"
     inkscape:window-width="1920"
     inkscape:window-height="1017"
     inkscape:window-x="1912"
     inkscape:window-y="-8"
     inkscape:window-maximized="1"
     inkscape:current-layer="layer1" />
  <defs
     id="defs861">
    <linearGradient
       inkscape:collect="always"
       xlink:href="#linearGradient20947"
       id="linearGradient20949"
       x1="433.2453"
       y1="339.46152"
       x2="433.2453"
       y2="765.13971"
       gradientUnits="userSpaceOnUse"
       gradientTransform="matrix(0.26458333,0,0,0.26458333,91.799499,41.086867)" />
    <linearGradient
       inkscape:collect="always"
       id="linearGradient20947">
      <stop
         style="stop-color:#666666;stop-opacity:1"
         offset="0"
         id="stop20943" />
      <stop
         style="stop-color:#000000;stop-opacity:1"
         offset="1"
         id="stop20945" />
    </linearGradient>
  </defs>
  <g
     inkscape:label="Livello 1"
     inkscape:groupmode="layer"
     id="layer1"
     transform="translate(-114.07504,-83.903071)">
    <g
       id="g3216"
       transform="matrix(4.6456842,0,0,4.6456842,-667.14275,-187.08506)"
       style="fill:#e6e6e6;fill-opacity:1">
      <path
         id="polygon1026"
         style="opacity:1;fill:#e6e6e6;fill-opacity:1;stroke-width:1.40679"
         d="m 703.54883,267.69531 -7.71094,4.00977 h 16.03906 z m -27.08594,14.08594 -8.08203,4.20313 v 45.01757 l 36.57617,18.28711 36.57617,-18.28711 v -45.01757 l -8.72851,-4.20313 z"
         transform="scale(0.26458333)" />
      <g
         id="g2907"
         transform="matrix(0.42133096,0,0,0.42133096,109.15955,44.593886)"
         style="fill:#e6e6e6;fill-opacity:1">
        <path
           d="m 183.19577,34.10649 c -0.40716,0.615967 -0.94483,1.706961 -1.14319,2.322928 -0.49069,1.508599 -0.48547,2.740534 0.0209,3.94637 0.0209,0.0522 -0.1566,-0.03132 -0.47503,-0.234903 -1.50338,-0.944832 -2.58393,-1.299797 -3.49744,-1.143195 -0.67861,0.120062 -1.0649,0.375845 -1.31024,0.876971 -0.3393,0.699489 -0.0731,1.853123 0.59509,2.578712 0.51157,0.553327 1.00225,0.642068 1.42508,0.266224 l 0.21402,-0.193143 -0.10962,-0.255783 c -0.14094,-0.313204 -0.10962,-0.537667 0.10962,-0.78823 0.21924,-0.250563 0.55855,-0.365404 1.06489,-0.365404 0.65251,0 1.11188,0.214022 1.44074,0.668168 0.1305,0.182702 0.15138,0.250563 0.12528,0.401945 -0.0522,0.281883 -0.29754,0.694269 -0.84565,1.435518 -0.87697,1.190175 -0.89263,1.445958 -0.0783,1.367657 0.61597,-0.05742 1.26848,-0.407165 1.55036,-0.835211 0.0835,-0.130501 0.16704,-0.240123 0.1827,-0.240123 0.0157,-0.0052 0.12528,0.250564 0.25057,0.558547 l 0.21924,0.563767 -0.12528,0.647288 c -0.75169,3.883729 -1.95753,6.900926 -3.46091,8.639208 -0.7047,0.81433 -1.70174,1.477278 -2.52129,1.6652 -1.88966,0.443706 -4.14995,-0.892631 -6.36848,-3.753226 l -0.42282,-0.548107 0.0313,-0.454146 c 0.0157,-0.255783 0.0418,-0.537666 0.0574,-0.631628 l 0.0261,-0.172262 0.1827,0.135722 c 0.43327,0.328864 1.05445,0.459366 1.65476,0.344524 0.43849,-0.0783 0.57943,-0.161822 0.60031,-0.339304 0.0261,-0.193142 -0.14094,-0.365404 -0.77257,-0.80389 -1.4825,-1.023133 -1.67042,-1.258036 -1.43552,-1.816583 0.26101,-0.626407 0.97093,-1.064893 1.72784,-1.075333 0.57943,-0.0052 0.85609,0.240123 0.85609,0.76213 0,0.318424 0.005,0.328864 0.18271,0.412385 0.71515,0.339304 1.36765,-0.281884 1.53992,-1.461618 0.13572,-0.965712 -0.21925,-1.842683 -0.87176,-2.161107 -0.522,-0.250563 -1.41985,-0.125282 -2.15588,0.302764 -0.41761,0.245343 -1.57124,1.383317 -1.98363,1.957524 -0.1566,0.224463 -0.29754,0.407165 -0.3132,0.407165 -0.0157,0 -0.0261,-0.266223 -0.0261,-0.589867 -0.005,-1.445958 -0.69949,-2.850156 -2.12979,-4.311774 -0.62118,-0.636848 -1.35199,-1.226715 -1.39897,-1.137974 -0.0679,0.120061 -0.30277,1.096214 -0.38107,1.60256 -0.34452,2.108906 0.0418,3.993349 1.04923,5.115663 0.14095,0.156602 0.20881,0.266224 0.15139,0.245343 -0.22447,-0.08874 -1.1432,-0.297543 -1.613,-0.375844 -0.60031,-0.09396 -1.52426,-0.109622 -1.88967,-0.0261 -0.36018,0.0783 -0.94483,0.370625 -1.21105,0.600308 -0.78301,0.668168 -0.62641,1.905323 0.34974,2.813615 0.74647,0.689048 1.5086,0.79867 1.89489,0.281883 0.19314,-0.261003 0.21402,-0.375844 0.0835,-0.490686 -0.0626,-0.0522 -0.15661,-0.193142 -0.20881,-0.313204 -0.16182,-0.360184 -0.0104,-0.715149 0.45415,-1.044013 0.48025,-0.344524 1.31024,-0.428045 1.7696,-0.187922 0.44893,0.240123 0.46981,0.271443 0.46459,0.725589 -0.005,0.339304 -0.0522,0.548107 -0.27667,1.242375 -0.40716,1.247596 -0.43326,1.529479 -0.16704,1.61822 0.20358,0.06264 0.81955,-0.281883 1.22672,-0.683828 0.21402,-0.219243 0.50112,-0.756909 0.50112,-0.950052 0,-0.06264 0.0157,-0.114841 0.0418,-0.109621 0.0209,0 0.19315,0.187922 0.39151,0.412385 l 0.34974,0.412385 v 0.527227 c 0,1.211055 -0.19314,2.970216 -0.44892,4.108191 -0.24013,1.070113 -0.63685,2.082805 -1.05446,2.688332 -0.22968,0.334085 -0.73603,0.793451 -1.04401,0.950053 -0.49069,0.245343 -1.46162,0.454146 -2.25507,0.485465 -0.63684,0.02088 -0.75691,0.01045 -1.22149,-0.109621 -0.93961,-0.240123 -2.06715,-0.86653 -3.37216,-1.858343 -0.56899,-0.433265 -0.61075,-0.480246 -0.69427,-0.736029 -0.047,-0.151382 -0.0783,-0.281883 -0.0679,-0.292323 0.005,-0.01044 0.12006,0 0.24534,0.0261 0.56377,0.09918 1.25282,-0.135722 1.76438,-0.595087 0.30799,-0.276664 0.36541,-0.407166 0.2349,-0.548107 -0.12528,-0.140942 -0.3393,-0.187923 -1.32589,-0.307984 -1.613,-0.198363 -1.77482,-0.292324 -1.78526,-1.012693 -0.005,-0.433265 0.1566,-0.82477 0.48546,-1.195394 0.32365,-0.360185 0.69427,-0.568988 1.02835,-0.568988 0.29755,0 0.46981,0.120062 0.63163,0.448926 l 0.12528,0.250563 0.28189,-0.02088 c 0.16704,-0.01566 0.3393,-0.06786 0.4176,-0.125282 0.80389,-0.600307 0.21403,-2.688333 -0.91351,-3.24166 -0.65251,-0.323644 -1.31023,-0.125282 -1.99406,0.589867 -0.55855,0.589868 -0.87175,1.294576 -1.16408,2.630913 -0.0731,0.328864 -0.14616,0.715149 -0.16704,0.861311 l -0.0365,0.255783 -0.17226,-0.349744 c -0.57421,-1.153635 -1.5608,-1.983625 -3.0955,-2.589153 -0.60553,-0.240123 -1.51382,-0.485466 -2.25507,-0.605527 -0.57421,-0.08874 -0.73081,-0.09918 -0.73081,-0.03132 0,0.0783 1.53992,1.472059 2.74054,2.484751 2.04626,1.727842 3.06939,2.683114 4.32221,4.03511 0.88741,0.955272 1.67042,2.025386 2.76141,3.763667 1.21106,1.936645 1.71219,3.29908 1.85835,5.068683 l 0.0365,0.443705 7.38639,0.03654 c 4.06121,0.02088 13.79141,0.04176 21.62151,0.0522 l 14.23511,0.01566 0.0313,-0.287104 c 0.0522,-0.443705 0.30277,-1.430297 0.52201,-2.009724 0.25578,-0.69427 1.01269,-2.223749 1.54514,-3.13204 0.50113,-0.86131 1.5608,-2.45865 2.21331,-3.340841 0.80911,-1.101434 2.22375,-2.495191 4.38485,-4.322214 1.92099,-1.62866 3.21556,-2.813615 3.1477,-2.881475 -0.0418,-0.04698 -1.10143,0.120061 -1.70174,0.266223 -1.58168,0.386285 -3.01198,1.169294 -3.76889,2.067146 -0.17226,0.203582 -0.41238,0.568987 -0.54288,0.81433 l -0.22969,0.443705 -0.0626,-0.386285 c -0.25056,-1.571239 -0.68905,-2.703993 -1.29457,-3.346061 -0.62119,-0.657728 -1.34156,-0.882191 -1.96797,-0.615968 -0.51678,0.219243 -1.08055,0.997033 -1.25281,1.727842 -0.20359,0.871751 0.0157,1.503378 0.57942,1.65998 0.30799,0.08352 0.46981,0.0261 0.53767,-0.198362 0.17226,-0.584648 0.88741,-0.631628 1.49294,-0.104401 0.2349,0.208802 0.50635,0.610747 0.60031,0.897851 0.0887,0.281883 0.0731,0.85609 -0.0313,1.017912 -0.16705,0.250563 -0.55855,0.365405 -1.78527,0.506347 -0.84043,0.09396 -1.12231,0.161822 -1.24237,0.292323 -0.0835,0.09396 -0.0835,0.114842 -0.005,0.276664 0.0992,0.208802 0.62641,0.605527 1.00226,0.751689 0.35496,0.140942 0.73603,0.182702 1.01791,0.120061 0.12528,-0.0261 0.24012,-0.04698 0.24534,-0.03654 0.005,0.0052 -0.047,0.198362 -0.11484,0.428045 l -0.1305,0.412385 -0.51679,0.433266 c -1.95752,1.64954 -3.20512,2.255068 -4.61975,2.255068 -1.34678,0 -2.58394,-0.579428 -3.31475,-1.550359 -1.00747,-1.336337 -1.49815,-3.403483 -1.65476,-6.932246 l -0.0313,-0.73081 0.38106,-0.433265 0.37585,-0.433265 0.0887,0.287103 c 0.11484,0.365405 0.261,0.595088 0.54288,0.856091 0.29233,0.266223 0.61075,0.469806 0.90308,0.568987 0.21402,0.07308 0.2349,0.07308 0.3393,-0.01566 0.15138,-0.140942 0.10962,-0.433266 -0.21402,-1.445958 -0.43327,-1.367657 -0.44893,-1.644321 -0.12006,-1.915764 0.68904,-0.563767 2.07236,-0.297544 2.46387,0.475026 0.17226,0.334084 0.1305,0.548107 -0.16183,0.861311 l -0.15138,0.156602 0.12006,0.234902 c 0.29755,0.563767 0.87176,0.626408 1.5869,0.172263 0.70471,-0.448926 1.26848,-1.336337 1.26848,-1.999285 0,-0.76213 -0.65773,-1.440738 -1.64954,-1.701741 -0.64729,-0.172262 -1.83746,-0.08352 -3.03808,0.224462 l -0.57943,0.151382 0.29233,-0.370624 c 0.52723,-0.673389 0.85609,-1.508599 1.01269,-2.583932 0.0783,-0.548107 0.0365,-1.884444 -0.0835,-2.536952 -0.094,-0.522006 -0.32886,-1.440738 -0.38106,-1.498158 -0.0574,-0.05742 -1.02314,0.767349 -1.51904,1.294576 -0.87176,0.918731 -1.4564,1.853123 -1.77483,2.824055 -0.17226,0.532446 -0.2871,1.357217 -0.24012,1.722621 0.0365,0.292324 0.0679,0.318424 -0.49591,-0.407165 -1.12753,-1.445958 -2.19242,-2.150667 -3.26254,-2.155887 -0.53766,-0.0052 -0.92395,0.167042 -1.20061,0.532447 -0.52723,0.683828 -0.51679,2.088026 0.0157,2.855375 0.30276,0.428046 0.75169,0.563767 1.15885,0.344525 0.17749,-0.09396 0.18271,-0.104402 0.16705,-0.375845 -0.0261,-0.527227 0.27666,-0.78823 0.90307,-0.78301 0.6003,0.0052 1.19539,0.318424 1.52426,0.80911 0.46458,0.683829 0.32886,0.965712 -0.87175,1.795703 -0.74125,0.511566 -1.091,0.788229 -1.15364,0.903071 -0.17748,0.334084 0.20358,0.542887 0.99703,0.542887 0.56377,0 0.86131,-0.08874 1.2215,-0.365405 l 0.22446,-0.172262 0.0365,0.568987 0.0365,0.568987 -0.32364,0.428045 c -1.08577,1.430298 -2.14023,2.568272 -2.98066,3.1999 -1.68086,1.273696 -2.76663,1.346777 -4.36919,0.307984 -1.05968,-0.694269 -2.06193,-1.947084 -2.90758,-3.622725 -0.82477,-1.644321 -1.61822,-4.071651 -2.0567,-6.300618 l -0.12007,-0.584648 0.13573,-0.328864 c 0.0731,-0.182702 0.17226,-0.417605 0.21924,-0.532446 l 0.0835,-0.198363 0.14616,0.229683 c 0.28188,0.443706 0.82477,0.76213 1.48772,0.882191 0.39672,0.06786 0.57943,0.03654 0.65773,-0.109621 0.0835,-0.161822 -0.0679,-0.459366 -0.63685,-1.242376 -0.62641,-0.85609 -0.74647,-1.059673 -0.82999,-1.367657 -0.0574,-0.224463 -0.0522,-0.250563 0.0783,-0.459366 0.44893,-0.715148 1.64432,-0.944831 2.37513,-0.459365 0.17748,0.120061 0.261,0.219243 0.31842,0.381065 0.0679,0.208802 0.0679,0.240123 -0.0418,0.495906 l -0.11484,0.271443 0.14616,0.151382 c 0.40195,0.433265 0.93962,0.375845 1.44596,-0.156602 0.77257,-0.80389 1.01269,-2.098466 0.52201,-2.839715 -0.15138,-0.234903 -0.54289,-0.495906 -0.89263,-0.600308 -0.40195,-0.114841 -1.16408,-0.09918 -1.6391,0.03132 -0.50113,0.140942 -1.49816,0.626408 -2.16633,1.064893 -0.2871,0.182702 -0.52723,0.334084 -0.53245,0.323644 -0.005,-0.0052 0.0574,-0.208803 0.14095,-0.448926 0.4698,-1.378097 0.24012,-3.100718 -0.65773,-4.932961 -0.29755,-0.610747 -0.83521,-1.487718 -0.90829,-1.487718 -0.0261,0 -0.19315,0.219242 -0.36541,0.480246 z"
           id="path2385"
           style="fill:#e6e6e6;fill-opacity:1;stroke:none;stroke-width:0.00522007" />
        <path
           d="m 161.94489,68.433636 0.005,3.14248 h 21.61107 21.60584 l 0.006,-3.184241 h -21.6116 c -11.88609,0 -21.61107,0.01566 -21.61629,0.04176 z"
           id="path2387"
           style="fill:#e6e6e6;fill-opacity:1;stroke:none;stroke-width:0.00522007"
           sodipodi:nodetypes="cccccscc" />
      </g>
    </g>
    <path
       id="path19291"
       style="font-size:10.5833px;line-height:1.25;font-family:Chomsky;-inkscape-font-specification:Chomsky;text-align:center;text-anchor:middle;fill:#ffffff;stroke:#e6e6e6;stroke-width:2;stroke-linecap:round;stroke-linejoin:miter;stroke-miterlimit:4;stroke-dasharray:none"
       d="m 182.11395,130.82515 c -1.16802,0.99929 -2.33593,1.9987 -3.5039,2.99804 -7.21654,-3.33661 -16.57866,-1.77513 -21.96721,4.18899 -4.84325,5.29334 -5.56819,14.06911 -1.20129,19.86512 0.5031,0.68327 1.05426,1.33439 1.67435,1.91465 -1.03478,1.65043 -1.83028,3.50099 -3.14613,4.94838 -3.32596,2.47651 -6.00947,5.68184 -8.54332,8.93443 -1.92332,-0.48287 -3.64771,0.75717 -5.34399,1.43949 -0.53348,0.31403 -1.01001,0.48785 -1.24647,-0.19802 -0.75187,-1.13691 -1.70039,-2.38061 -3.17321,-2.50709 -1.21943,-0.21883 -2.36069,0.34128 -3.39962,0.89654 -8.73812,3.97596 -14.7134,13.14457 -15.1188,22.69976 -0.50739,7.42079 1.77602,15.24422 7.07404,20.60826 4.01098,4.0797 10.09823,6.36999 15.77123,5.0328 4.40447,-0.92876 8.31931,-3.47068 11.48174,-6.61041 1.86459,0.30989 3.72917,0.61979 5.59375,0.92969 v 13.97851 c 1.4473,-0.66471 3.04871,-0.60652 4.60157,-0.59765 1.34725,0.0129 2.65985,-0.40997 3.74541,-1.20886 2.75574,-1.64006 5.47516,-3.33732 8.23115,-4.97864 v -4.32032 c 1.67306,-1.41283 3.41677,-2.66742 5.26172,-3.81445 0.92442,1.23767 1.84933,2.47498 2.77343,3.71289 0.85118,-0.538 1.70181,-1.07686 2.55274,-1.61523 1.68621,1.47003 3.37229,2.94023 5.05859,4.41015 2.9044,-1.52389 5.80858,-3.04821 8.71289,-4.57226 0.61187,0.78394 1.2255,1.56651 1.83594,2.35156 0.73035,-0.53402 1.46095,-1.0677 2.19141,-1.60156 1.5814,1.4238 3.16264,2.84779 4.74414,4.27148 2.62231,-1.83215 5.24481,-3.66404 7.86719,-5.49609 2.58964,2.04492 5.17189,4.09717 7.75195,6.15429 1.78883,-1.61563 3.58097,-3.22759 5.37109,-4.84179 1.84189,1.60927 3.683,3.21943 5.52539,4.82812 2.04768,-1.66648 4.09503,-3.33336 6.14258,-5 1.81374,1.58796 3.62798,3.17536 5.44141,4.76367 2.78285,-1.814 5.56505,-3.62898 8.34766,-5.44335 2.27369,2.42841 5.54653,3.77458 8.83789,3.99414 1.5208,-0.64242 2.83184,-1.6612 4.14257,-2.64454 1.23508,1.27969 2.53204,2.49565 3.77539,3.76758 4.09024,-2.81027 8.18019,-5.62097 12.27149,-8.42968 -0.80692,-3.24635 -1.61551,-6.49229 -2.42383,-9.73829 -0.98716,0.67093 -1.97659,1.3385 -2.96484,2.00782 0.007,-2.24479 0.006,-4.48958 0.004,-6.73438 1.41478,-1.14705 2.82897,-2.29484 4.24414,-3.44141 -2.00425,-2.60339 -4.00441,-5.20995 -6.00976,-7.8125 -1.01182,0.8189 -2.02343,1.63804 -3.03516,2.45704 -2.30098,-1.49513 -4.60036,-2.99274 -6.90234,-4.48633 -3.62854,2.23933 -7.88502,3.54556 -10.99694,6.5594 -0.43956,-0.31914 -0.88739,-1.01557 -1.33012,-1.47933 -0.83427,-0.98117 -1.66923,-1.96177 -2.50302,-2.94335 -0.70574,0.56135 -1.4128,1.12104 -2.11914,1.68164 -1.63675,-1.41012 -3.27324,-2.82054 -4.91016,-4.23047 -2.2915,1.42629 -4.58195,2.85429 -6.87304,4.28125 -1.67383,-1.43164 -3.34765,-2.8633 -5.02149,-4.29492 -2.04691,1.29328 -4.09515,2.58448 -6.14258,3.87695 -1.2527,-1.41267 -2.50454,-2.82611 -3.75781,-4.23828 -3.20085,2.20069 -6.40099,4.40242 -9.60156,6.60351 -0.4655,-0.55924 -0.93099,-1.11849 -1.39649,-1.67773 1.96219,-1.74485 3.92482,-3.48921 5.88672,-5.23438 -1.35331,-1.56187 -2.8571,-3.26453 -4.11523,-4.73828 0.46678,0.57111 0.89706,-0.39534 1.34588,-0.58445 2.73302,-2.22901 5.46603,-4.45802 8.19904,-6.68703 2.05253,3.71266 6.22648,6.10645 10.44141,6.18164 1.52072,-0.20386 2.5112,-1.51603 3.77343,-2.24414 0.4088,-0.71693 0.77633,0.16538 1.15934,0.4373 1.00677,1.00009 2.0137,2 3.02035,3.0002 4.09009,-2.80824 8.17885,-5.61842 12.26953,-8.42578 -0.80605,-3.24689 -1.61216,-6.49377 -2.41992,-9.74024 -0.98871,0.67186 -1.97919,1.34112 -2.96875,2.01172 0.009,-2.24609 0.008,-4.49218 0.004,-6.73828 1.40951,-1.14712 2.81895,-2.29434 4.22851,-3.4414 -1.99722,-2.60886 -3.99535,-5.21703 -5.99218,-7.82618 -1.01345,0.8219 -2.02737,1.6432 -3.04102,2.46485 -2.29946,-1.49353 -4.59909,-2.98678 -6.89844,-4.48047 -3.60101,2.21941 -7.80821,3.52628 -10.9194,6.48614 -0.38715,0.42626 -0.72196,0.89867 -1.00052,1.40253 -1.94604,-2.89654 -3.82112,-5.83874 -5.75586,-8.74219 -5.1409,2.68496 -10.28261,5.36837 -15.42383,8.05274 V 131.2021 c -2.1249,0.8229 -4.44757,0.0361 -6.59375,0.70899 -1.42312,0.523 -2.51431,1.65031 -3.78582,2.44566 l -3.72004,2.64027 c 0.0463,-1.5233 -0.97525,-2.8857 -2.26959,-3.59201 -1.15993,-0.95657 -2.32179,-1.91078 -3.48041,-2.86892 -0.11263,0.0964 -0.22526,0.1927 -0.33789,0.28906 z m -7.93555,44.47852 c 1.54105,1.36901 3.19276,2.67114 5.01954,3.61914 2.00358,0.44298 3.75715,-0.95289 5.14974,-2.2019 0.66038,-0.5393 1.31983,-1.07967 1.98697,-1.6106 0.4056,0.58333 0.81147,1.16648 1.2168,1.75 0.89131,-0.56571 1.78255,-1.13152 2.67383,-1.69727 1.80859,1.5599 3.61719,3.11979 5.42578,4.67969 2.00807,-1.40202 4.00716,-2.86593 6.03516,-4.20898 1.04584,0.32532 2.20597,0.0709 3.11133,-0.51368 -2.84245,2.52735 -5.6849,5.05469 -8.52735,7.58203 0.26043,-0.52527 -0.75723,-0.40083 -1.22929,-0.50781 h -5.72188 c -2.43782,2.45933 -4.87212,4.92215 -7.30859,7.38281 -1.01387,-0.73802 -2.45933,-0.93593 -3.57813,-0.31835 -1.58077,-1.45068 -3.20862,-2.82493 -4.79492,-4.25977 -1.7428,1.30756 -3.48709,2.61313 -5.23047,3.91992 -1.1828,-1.19608 -2.55646,-2.37751 -4.22656,-2.76562 -1.92045,-0.0267 -3.47877,1.30878 -4.95508,2.30664 -1.00415,-3.24392 -2.72621,-6.26524 -5.02344,-8.76758 1.97071,-1.59913 4.02623,-3.18712 6.38867,-4.15235 2.05179,-0.41948 3.92369,0.87996 5.51971,1.9972 1.46747,1.31751 3.91486,1.21801 5.25793,-0.22995 0.87262,-0.72445 1.70197,-1.49375 2.54854,-2.24771 0.0872,0.0814 0.17448,0.16276 0.26171,0.24414 z m 25.33985,12.68554 c -1.08268,-0.001 -2.16536,-0.003 -3.24805,-0.004 v -3.72266 c 1.08269,1.24219 2.16537,2.48438 3.24805,3.72656 z m 52.87109,12.23243 c 0.20115,0.86998 0.71896,1.72182 1.09961,2.44531 -0.39552,0.42277 -0.77187,0.86486 -1.10351,1.33984 0.005,-1.25212 -0.004,-2.5795 0.004,-3.78515 z m -38.88476,1.11328 c 0.4942,0.0186 0.85248,0.0412 0.67831,0.65273 -0.005,1.34948 -0.005,2.69896 -0.003,4.04844 -0.3457,-0.28757 -0.83874,-0.48071 -0.68653,-1.00958 -0.002,-1.22371 -0.0184,-2.49772 0.0108,-3.69159 z"
       sodipodi:nodetypes="ccccccccccccccccccccccccccccccccccccccccccccccccccccccccccccccccccccccccccccccccccccccccccccccccccccccccccccccccccccccccsccccs" />
    <path
       id="path13968"
       style="font-size:10.5833px;line-height:1.25;font-family:Chomsky;-inkscape-font-specification:Chomsky;text-align:center;text-anchor:middle;fill:url(#linearGradient20949);fill-opacity:1;stroke:none;stroke-width:0.264583"
       d="m 197.1171,135.86248 -8.15971,5.79086 v 0.70486 c 2.20257,0.70493 2.40296,1.25881 2.40296,3.67575 v 21.90357 l -3.3538,2.16524 0.70073,1.00718 1.90221,-1.20872 5.30613,4.58215 6.08025,-4.29069 0.82786,1.01803 2.20245,-1.81281 7.45898,5.53868 10.31203,-8.40879 -0.75086,-1.20871 -5.50664,4.33048 -6.00687,-4.12895 v -2.16524 l 10.81226,-6.74739 v -0.25167 l -5.05551,-7.70392 -11.96412,6.24355 v 13.29325 l -2.27635,1.8128 -0.62684,-0.85576 -1.45211,1.2082 -1.9022,-1.91358 v -32.57837 z m -14.61719,0.20153 -3.3538,2.87011 c -2.55299,-1.71201 -5.60638,-2.61844 -8.65994,-2.61844 -7.1083,0 -13.71596,4.88454 -13.71596,12.53825 0,4.63245 2.55277,8.10675 5.95674,9.7684 l -5.15627,8.76122 c -2.82474,1.48833 -8.71598,8.11484 -10.70633,11.68869 -0.77385,-0.47551 -1.57164,-0.89552 -2.38383,-1.25418 l -14.41669,6.24354 c 1.40163,-2.61836 3.35419,-4.78338 5.55677,-6.34431 l -0.70125,-0.95654 c -7.55882,3.07153 -13.61571,10.77533 -13.61571,21.14807 0,11.37981 7.00837,19.88922 15.41818,19.88922 8.76023,0 19.27221,-11.02691 19.27221,-22.55779 0,-6.97632 -3.55783,-12.34654 -8.20725,-15.56701 2.71379,-2.69068 9.84808,-8.51318 12.93771,-8.51318 2.85333,0 5.6569,1.10781 7.85947,2.97088 l 5.55625,-4.88446 c 1.75204,2.06444 3.75431,3.87715 6.05699,5.38779 l 6.65799,-5.38779 -1.45159,-1.66139 -1.70222,1.3596 c -2.00234,-1.51058 -2.15232,-3.7763 -2.15232,-7.14995 V 142.5091 c 0,-1.91342 0.30038,-3.37338 1.15135,-4.53151 l 0.90072,-1.00717 z m -13.61571,5.18625 c 1.30151,0 2.55289,0.25189 3.75429,0.65474 l -9.41079,15.91169 c -2.15252,-1.66165 -3.70469,-4.22997 -3.70469,-7.5029 0,-5.28709 4.10505,-9.06353 9.36119,-9.06353 z m 5.05602,1.25884 c 0.40044,0.20154 0.75089,0.45326 1.15135,0.70487 v 12.89068 h -9.2108 z m 61.2712,6.39496 -5.50664,2.87011 c -1.50176,0.80564 -3.1533,2.06433 -3.1533,4.27984 0,2.31622 1.80197,3.77661 4.10466,4.78368 -3.75438,1.96373 -5.80688,4.53166 -5.80688,7.25073 0,3.72615 3.55399,6.19364 6.75772,6.59649 l 5.25653,-3.82715 3.85455,3.82715 6.95771,-4.78369 -0.25011,-1.00717 -2.15233,1.46038 -2.40295,-2.41691 v -12.68915 l 2.60294,-2.1146 -0.85111,-1.10794 -2.05207,1.66191 z m -23.72775,3.57497 4.10465,5.94176 -5.0555,3.22254 v -8.61032 z m 19.27272,0.20154 5.90661,3.67574 v 4.73305 c -3.35391,-0.75529 -8.65993,-2.11456 -8.65993,-5.33714 0,-1.35957 1.25158,-2.26601 2.75332,-3.07165 z m -67.62895,8.05636 -0.25011,0.55397 h 12.21424 v 4.22971 l -3.00395,2.51768 c -2.35274,-1.51058 -5.10574,-2.31614 -7.85895,-2.31614 -1.60187,0 -3.0534,0.25172 -4.45503,0.70487 z m 68.42993,0.45372 c 1.65193,0.60427 3.50377,1.05723 5.10563,1.40973 v 7.60315 c -0.35042,0.10048 -0.70068,0.15142 -1.05109,0.15142 -3.10362,0 -4.70566,-3.97809 -4.70566,-6.84817 0,-0.95672 0.30073,-1.81257 0.65112,-2.31613 z m -25.35504,18.33944 -4.75526,4.22972 4.25504,4.88394 4.75526,-4.22972 z m -67.37831,2.41588 c 0.75088,0.35227 1.50163,0.70509 2.20245,1.10794 v 29.20442 h -0.55036 c -5.15565,0 -9.11018,-3.57427 -11.21275,-8.55865 l 9.4108,-3.97805 0.0496,-17.7245 z m 3.60443,1.96474 c 3.2538,2.16514 5.5064,4.93482 6.85798,8.20776 l -6.85798,3.47421 z m -10.2123,0.80563 v 16.26413 l -3.45353,1.46037 c -0.851,-2.36658 -1.30173,-5.03572 -1.30173,-7.70444 0,-3.22258 0.65047,-6.19321 1.7017,-8.76122 z m 58.86876,1.71204 -8.15919,8.25789 v 0.70487 c 1.05123,0 2.40244,0.45324 2.40244,2.41691 v 12.08505 l -3.3538,2.16472 0.75085,1.00718 1.90221,-1.2082 5.25601,4.58215 6.90811,-3.62562 -0.70073,-0.95653 -1.70171,0.90641 -2.35283,-2.36678 v -15.40785 h 3.60392 l 2.35283,-2.76985 h -5.95675 v -5.79035 z m -17.67076,4.0287 -6.3071,4.73304 v -0.9064 c -0.75088,-1.561 -1.95217,-2.87017 -3.3538,-3.77652 l -6.057,4.07831 0.50023,0.80563 c 0.35043,-0.20154 0.75088,-0.35243 1.15135,-0.35243 1.55181,0 1.95234,1.35959 1.95234,2.16524 v 12.58838 l -2.55282,2.16524 c 0.85099,0.15129 1.70182,0.25166 2.55282,0.45321 v 12.68914 h 0.95136 l 7.15822,-4.33048 v -0.70487 c -1.65193,-0.25178 -2.3027,-1.56106 -2.3027,-3.52485 v -2.31614 c 1.2014,0.55381 2.35269,1.10782 3.40392,1.71204 2.50292,-2.16515 5.30607,-4.12921 8.30957,-5.79086 v -14.04824 l 1.85209,-1.5105 -0.8506,-1.10794 -1.55184,1.25884 z m 32.03732,0.10025 -6.75772,4.58215 0.75086,0.95653 1.90221,-1.2082 1.70222,2.16525 v 13.29324 l -3.15382,2.16473 0.75086,0.95704 1.6521,-1.20871 4.80539,4.33049 7.20835,-5.03535 -1.20148,-0.95653 -2.15232,1.40973 -1.70223,-1.6614 v -15.20682 z m 15.36806,0.15089 -6.95823,4.78369 0.70073,1.00718 1.90221,-1.20872 1.95233,2.16525 v 13.34337 l -1.95233,1.71204 5.75675,4.58214 4.80591,-4.32996 -2.15284,-1.96422 v -14.24978 l 2.20297,-1.30896 3.45405,3.17189 v 12.38685 l -2.10271,1.96422 4.95577,4.32996 5.50664,-4.48138 -2.60294,-2.31613 v -13.44414 l 2.65306,-1.61127 3.45406,3.17189 v 12.38685 l -2.10272,1.96422 4.95577,4.32996 7.40885,-4.83381 v -1.86293 l -2.15284,1.61127 -2.35231,-2.36678 v -12.63851 l 2.50269,-2.06447 -0.90124,-1.0573 -1.65157,1.30896 -5.20641,-4.48138 -6.85798,4.28036 -5.00589,-4.28036 -6.55722,4.12895 z m 44.15131,0.10077 -5.50613,2.87011 c -1.50175,0.80564 -3.15381,2.06433 -3.15381,4.27984 0,2.31628 1.80197,3.77662 4.10466,4.78369 -3.75439,1.96379 -5.80636,4.5317 -5.80636,7.25072 0,3.72615 3.55398,6.19365 6.75773,6.5965 l 5.256,-3.82664 3.85455,3.82664 6.95823,-4.78369 -0.25063,-1.00717 -2.15232,1.46037 -2.40296,-2.4169 v -12.68915 l 2.60346,-2.1146 -0.85111,-1.10795 -2.05259,1.66192 z m -115.13406,2.66857 c 0.35044,1.00701 0.60075,2.11528 0.80099,3.22306 l -8.20932,4.17908 v -3.67575 z m 110.67903,1.10795 5.90714,3.67574 v 4.73304 c -3.35391,-0.75529 -8.66046,-2.11456 -8.66046,-5.33714 0,-1.35957 1.25156,-2.266 2.75332,-3.07164 z m -91.20631,0.60409 3.30419,2.71922 v 14.95464 c -1.80211,-0.80564 -3.60442,-1.61098 -5.50664,-2.36626 v -13.64568 z m -18.52135,3.07165 c 0.10012,0.70494 0.10025,1.40995 0.10025,2.16524 0,6.44522 -3.90463,10.67461 -8.45995,11.63133 v -9.56685 z m 110.52865,4.83433 c 1.65193,0.60427 3.50428,1.05723 5.10615,1.40973 v 7.60316 c -0.35043,0.10048 -0.70122,0.15141 -1.05162,0.15141 -3.10363,0 -4.70514,-3.97808 -4.70514,-6.84816 0,-0.95672 0.30022,-1.81258 0.65061,-2.31614 z" />
  </g>
</svg>
